<?xml version="1.0" encoding="utf-8"?>
<!-- Generator: Adobe Illustrator 16.0.0, SVG Export Plug-In . SVG Version: 6.00 Build 0)  -->
<!DOCTYPE svg PUBLIC "-//W3C//DTD SVG 1.1//EN" "http://www.w3.org/Graphics/SVG/1.1/DTD/svg11.dtd">
<svg version="1.1" id="Layer_1" xmlns="http://www.w3.org/2000/svg" xmlns:xlink="http://www.w3.org/1999/xlink" x="0px" y="0px"
	 width="170px" height="170px" viewBox="0 0 170 170" enable-background="new 0 0 170 170" xml:space="preserve">
<path fill="#FFB23F" d="M169.5,85c0,46.67-37.839,84.5-84.5,84.5c-46.661,0-84.5-37.83-84.5-84.5S38.339,0.5,85,0.5
	C131.661,0.5,169.5,38.33,169.5,85z"/>
<g>
	<g>
		<path fill="#FFFFFF" d="M142,59.542c-0.989,0.096-1.977,0.311-2.963,0.645c-0.988,0.334-1.96,0.755-2.914,1.267
			c-1.466,0.828-2.509,1.736-3.131,2.722c-0.621,0.988-1.187,2.183-1.695,3.584c-1.752,4.841-4.451,12.597-8.099,23.268
			c-3.648,10.671-7.446,21.756-11.395,33.254h-9.653L84.297,73.917l-16.125,50.365h-9.643c-5.319-15.48-9.396-27.401-12.23-35.763
			c-2.836-8.362-5.225-15.376-7.167-21.046c-0.606-1.719-1.29-2.97-2.055-3.75c-0.764-0.78-1.752-1.569-2.962-2.365
			c-0.86-0.574-1.777-0.997-2.747-1.267c-0.972-0.271-2.094-0.484-3.368-0.645v-3.727h36.168v3.631
			c-2.13,0.256-3.72,0.502-4.767,0.74c-1.05,0.239-1.877,0.486-2.48,0.741c-0.572,0.257-0.922,0.526-1.049,0.812
			c-0.128,0.287-0.191,0.541-0.191,0.764c0,0.447,0.055,0.876,0.167,1.291c0.111,0.415,0.23,0.893,0.358,1.434
			c0.764,2.481,2.308,7.191,4.634,14.127c2.325,6.935,5.193,15.542,8.601,25.818l14.431-44.248h12.183l16.827,45.818
			c2.642-8.185,4.752-14.873,6.329-20.065c1.576-5.191,2.905-9.633,3.987-13.329c0.637-2.26,1.146-4.157,1.529-5.685
			c0.382-1.53,0.573-2.852,0.573-3.966c0-0.669-0.312-1.243-0.931-1.722c-0.621-0.477-1.455-0.891-2.503-1.242
			c-0.89-0.286-2.042-0.517-3.455-0.693c-1.414-0.174-2.646-0.31-3.693-0.405v-3.823H142V59.542z"/>
	</g>
	<g>
		<g>
			<path fill="#FFFFFF" stroke="#FAAF3B" stroke-width="2" d="M83.629,112.274L69.534,98.178c1.666-2.634,2.629-5.753,2.631-9.102
				c-0.002-9.417-7.633-17.048-17.052-17.051c-9.419,0.003-17.051,7.634-17.051,17.051c0,9.419,7.632,17.05,17.051,17.054
				c3.491,0,6.737-1.053,9.439-2.853l14.036,14.036c0.697,0.696,1.608,1.044,2.521,1.044c0.911,0,1.825-0.348,2.52-1.044
				C85.021,115.922,85.021,113.665,83.629,112.274z M47.009,97.18c-2.077-2.082-3.353-4.93-3.356-8.104
				c0.003-3.173,1.279-6.021,3.356-8.104c2.082-2.076,4.931-3.354,8.104-3.355c3.173,0.001,6.021,1.279,8.104,3.355
				c2.078,2.084,3.355,4.932,3.356,8.104c-0.001,3.174-1.278,6.021-3.356,8.104c-2.083,2.078-4.931,3.355-8.104,3.358
				C51.94,100.535,49.091,99.258,47.009,97.18z"/>
		</g>
		<circle fill="#FAAF3B" cx="55.138" cy="89.277" r="11.108"/>
	</g>
	<g>
		<path fill="#FFFFFF" d="M46.276,81.017c0,1.773-0.666,2.753-1.814,2.753c-1.019,0-1.717-0.955-1.733-2.681
			c0-1.758,0.762-2.713,1.822-2.713C45.643,78.376,46.276,79.355,46.276,81.017z M43.443,81.097c0,1.356,0.417,2.127,1.059,2.127
			c0.714,0,1.06-0.843,1.06-2.175c0-1.284-0.321-2.127-1.06-2.127C43.893,78.922,43.443,79.676,43.443,81.097z"/>
		<path fill="#FFFFFF" d="M48.451,79.122h-0.016l-0.907,0.49l-0.136-0.538l1.14-0.61h0.602v5.217h-0.682V79.122z"/>
		<path fill="#FFFFFF" d="M54.51,81.017c0,1.773-0.666,2.753-1.814,2.753c-1.019,0-1.717-0.955-1.733-2.681
			c0-1.758,0.762-2.713,1.822-2.713C53.876,78.376,54.51,79.355,54.51,81.017z M51.677,81.097c0,1.356,0.417,2.127,1.059,2.127
			c0.714,0,1.06-0.843,1.06-2.175c0-1.284-0.321-2.127-1.06-2.127C52.126,78.922,51.677,79.676,51.677,81.097z"/>
		<path fill="#FFFFFF" d="M56.684,79.122h-0.016l-0.907,0.49l-0.136-0.538l1.14-0.61h0.602v5.217h-0.682V79.122z"/>
		<path fill="#FFFFFF" d="M62.743,81.017c0,1.773-0.666,2.753-1.814,2.753c-1.019,0-1.717-0.955-1.733-2.681
			c0-1.758,0.762-2.713,1.822-2.713C62.109,78.376,62.743,79.355,62.743,81.017z M59.91,81.097c0,1.356,0.417,2.127,1.059,2.127
			c0.714,0,1.06-0.843,1.06-2.175c0-1.284-0.321-2.127-1.06-2.127C60.359,78.922,59.91,79.676,59.91,81.097z"/>
		<path fill="#FFFFFF" d="M66.86,81.017c0,1.773-0.666,2.753-1.814,2.753c-1.019,0-1.717-0.955-1.733-2.681
			c0-1.758,0.762-2.713,1.822-2.713C66.226,78.376,66.86,79.355,66.86,81.017z M64.027,81.097c0,1.356,0.417,2.127,1.059,2.127
			c0.714,0,1.06-0.843,1.06-2.175c0-1.284-0.321-2.127-1.06-2.127C64.476,78.922,64.027,79.676,64.027,81.097z"/>
		<path fill="#FFFFFF" d="M46.276,89.041c0,1.774-0.666,2.753-1.814,2.753c-1.019,0-1.717-0.955-1.733-2.681
			c0-1.758,0.762-2.713,1.822-2.713C45.643,86.4,46.276,87.38,46.276,89.041z M43.443,89.122c0,1.356,0.417,2.127,1.059,2.127
			c0.714,0,1.06-0.843,1.06-2.176c0-1.284-0.321-2.126-1.06-2.126C43.893,86.947,43.443,87.701,43.443,89.122z"/>
		<path fill="#FFFFFF" d="M48.451,87.147h-0.016l-0.907,0.489l-0.136-0.538l1.14-0.609h0.602v5.217h-0.682V87.147z"/>
		<path fill="#FFFFFF" d="M52.567,87.147h-0.016l-0.907,0.489l-0.137-0.538l1.14-0.609h0.602v5.217h-0.682V87.147z"/>
		<path fill="#FFFFFF" d="M58.626,89.041c0,1.774-0.666,2.753-1.814,2.753c-1.019,0-1.717-0.955-1.733-2.681
			c0-1.758,0.762-2.713,1.822-2.713C57.993,86.4,58.626,87.38,58.626,89.041z M55.793,89.122c0,1.356,0.417,2.127,1.059,2.127
			c0.714,0,1.06-0.843,1.06-2.176c0-1.284-0.321-2.126-1.06-2.126C56.243,86.947,55.793,87.701,55.793,89.122z"/>
		<path fill="#FFFFFF" d="M60.801,87.147h-0.016l-0.907,0.489l-0.137-0.538l1.14-0.609h0.602v5.217h-0.682V87.147z"/>
		<path fill="#FFFFFF" d="M66.86,89.041c0,1.774-0.666,2.753-1.814,2.753c-1.019,0-1.717-0.955-1.733-2.681
			c0-1.758,0.762-2.713,1.822-2.713C66.226,86.4,66.86,87.38,66.86,89.041z M64.027,89.122c0,1.356,0.417,2.127,1.059,2.127
			c0.714,0,1.06-0.843,1.06-2.176c0-1.284-0.321-2.126-1.06-2.126C64.476,86.947,64.027,87.701,64.027,89.122z"/>
		<path fill="#FFFFFF" d="M46.035,95.173h-0.016l-0.907,0.489l-0.137-0.538l1.14-0.609h0.602v5.217h-0.682V95.173z"/>
		<path fill="#FFFFFF" d="M52.094,97.066c0,1.774-0.666,2.753-1.814,2.753c-1.019,0-1.717-0.955-1.733-2.681
			c0-1.758,0.762-2.713,1.822-2.713C51.46,94.426,52.094,95.405,52.094,97.066z M49.261,97.147c0,1.356,0.417,2.127,1.059,2.127
			c0.714,0,1.06-0.843,1.06-2.176c0-1.284-0.321-2.127-1.06-2.127C49.71,94.972,49.261,95.727,49.261,97.147z"/>
		<path fill="#FFFFFF" d="M56.211,97.066c0,1.774-0.666,2.753-1.814,2.753c-1.019,0-1.717-0.955-1.733-2.681
			c0-1.758,0.762-2.713,1.822-2.713C55.577,94.426,56.211,95.405,56.211,97.066z M53.378,97.147c0,1.356,0.417,2.127,1.059,2.127
			c0.714,0,1.06-0.843,1.06-2.176c0-1.284-0.321-2.127-1.06-2.127C53.827,94.972,53.378,95.727,53.378,97.147z"/>
		<path fill="#FFFFFF" d="M58.385,95.173h-0.016l-0.907,0.489l-0.136-0.538l1.14-0.609h0.602v5.217h-0.682V95.173z"/>
		<path fill="#FFFFFF" d="M62.502,95.173h-0.016l-0.907,0.489l-0.136-0.538l1.14-0.609h0.602v5.217h-0.682V95.173z"/>
		<path fill="#FFFFFF" d="M66.619,95.173h-0.016l-0.907,0.489l-0.137-0.538l1.14-0.609h0.602v5.217h-0.682V95.173z"/>
	</g>
</g>
</svg>
