<?xml version="1.0" encoding="utf-8"?>
<!-- Generator: Adobe Illustrator 20.1.0, SVG Export Plug-In . SVG Version: 6.00 Build 0)  -->
<svg version="1.1" id="Layer_1" xmlns="http://www.w3.org/2000/svg" xmlns:xlink="http://www.w3.org/1999/xlink" x="0px" y="0px"
	 viewBox="0 0 170 170" style="enable-background:new 0 0 170 170;" xml:space="preserve">
<style type="text/css">
	.st0{fill:#FFB23F;}
	.st1{fill:#FFFFFF;}
	.st2{clip-path:url(#SVGID_2_);}
	.st3{clip-path:url(#SVGID_4_);}
	.st4{clip-path:url(#SVGID_25_);}
	.st5{clip-path:url(#SVGID_26_);}
	.st6{clip-path:url(#SVGID_27_);}
	.st7{clip-path:url(#SVGID_28_);}
	.st8{clip-path:url(#SVGID_29_);}
	.st9{clip-path:url(#SVGID_30_);}
	.st10{clip-path:url(#SVGID_31_);}
	.st11{clip-path:url(#SVGID_32_);}
	.st12{clip-path:url(#SVGID_33_);}
	.st13{clip-path:url(#SVGID_34_);}
	.st14{clip-path:url(#SVGID_35_);}
	.st15{clip-path:url(#SVGID_36_);}
	.st16{clip-path:url(#SVGID_37_);}
	.st17{clip-path:url(#SVGID_38_);}
	.st18{clip-path:url(#SVGID_39_);}
	.st19{clip-path:url(#SVGID_40_);}
	.st20{clip-path:url(#SVGID_41_);}
	.st21{clip-path:url(#SVGID_42_);}
	.st22{clip-path:url(#SVGID_43_);}
	.st23{clip-path:url(#SVGID_44_);fill:#FFFFFF;}
	.st24{clip-path:url(#SVGID_44_);}
	.st25{clip-path:url(#SVGID_46_);}
	.st26{clip-path:url(#SVGID_67_);}
	.st27{clip-path:url(#SVGID_68_);}
	.st28{clip-path:url(#SVGID_69_);}
	.st29{clip-path:url(#SVGID_70_);}
	.st30{clip-path:url(#SVGID_71_);}
	.st31{clip-path:url(#SVGID_72_);}
	.st32{clip-path:url(#SVGID_73_);}
	.st33{clip-path:url(#SVGID_74_);}
	.st34{clip-path:url(#SVGID_75_);}
	.st35{clip-path:url(#SVGID_76_);}
	.st36{clip-path:url(#SVGID_77_);}
	.st37{clip-path:url(#SVGID_78_);}
	.st38{clip-path:url(#SVGID_79_);}
	.st39{clip-path:url(#SVGID_80_);}
	.st40{clip-path:url(#SVGID_81_);}
	.st41{clip-path:url(#SVGID_82_);}
	.st42{clip-path:url(#SVGID_83_);}
	.st43{clip-path:url(#SVGID_84_);}
	.st44{clip-path:url(#SVGID_85_);}
	.st45{clip-path:url(#SVGID_86_);}
</style>
<path class="st0" d="M169.4,85.4c0,46.6-37.8,84.3-84.3,84.3c-46.6,0-84.3-37.8-84.3-84.3C0.7,38.9,38.5,1.1,85,1.1
	C131.6,1.1,169.4,38.9,169.4,85.4z"/>
<path class="st1" d="M78.9,112.9H28.1c-1.1,0-2-0.9-2-2V60c0-1.1,0.9-2,2-2h50.9c1.1,0,2,0.9,2,2v50.9C80.9,112,80,112.9,78.9,112.9
	z M30,108.9H77V62H30V108.9z"/>
<path class="st1" d="M142,112.9H91.1c-1.1,0-2-0.9-2-2V60c0-1.1,0.9-2,2-2H142c1.1,0,2,0.9,2,2v50.9C144,112,143.1,112.9,142,112.9z
	 M93.1,108.9H140V62H93.1V108.9z"/>
<g>
	<g>
		<defs>
			<rect id="SVGID_1_" x="91.1" y="60" width="50.9" height="50.9"/>
		</defs>
		<clipPath id="SVGID_2_">
			<use xlink:href="#SVGID_1_"  style="overflow:visible;"/>
		</clipPath>
		<g class="st2">
			<g>
				
					<rect x="86.3" y="45.9" transform="matrix(0.7074 -0.7068 0.7068 0.7074 -1.8356 88.7934)" class="st1" width="40.1" height="1.5"/>
			</g>
			<g>
				
					<rect x="83.3" y="65" transform="matrix(0.7067 -0.7075 0.7075 0.7067 -20.985 80.9509)" class="st1" width="7.7" height="1.5"/>
			</g>
			<g>
				<polygon class="st1" points="117.2,29.1 118.2,30.1 89.9,58.5 88.8,57.5 				"/>
			</g>
			<g>
				
					<rect x="80.5" y="62.2" transform="matrix(0.7067 -0.7075 0.7075 0.7067 -19.8149 78.1449)" class="st1" width="7.7" height="1.5"/>
			</g>
		</g>
	</g>
</g>
<g>
	<defs>
		<rect id="SVGID_3_" x="91.1" y="60" width="50.9" height="50.9"/>
	</defs>
	<clipPath id="SVGID_4_">
		<use xlink:href="#SVGID_3_"  style="overflow:visible;"/>
	</clipPath>
	<g class="st3">
		<defs>
			<rect id="SVGID_5_" x="91.1" y="60" width="50.9" height="50.9"/>
		</defs>
		<defs>
			<rect id="SVGID_6_" x="91.1" y="60" width="50.9" height="50.9"/>
		</defs>
		<defs>
			<rect id="SVGID_7_" x="91.1" y="60" width="50.9" height="50.9"/>
		</defs>
		<defs>
			<rect id="SVGID_8_" x="91.1" y="60" width="50.9" height="50.9"/>
		</defs>
		<defs>
			<rect id="SVGID_9_" x="91.1" y="60" width="50.9" height="50.9"/>
		</defs>
		<defs>
			<rect id="SVGID_10_" x="91.1" y="60" width="50.9" height="50.9"/>
		</defs>
		<defs>
			<rect id="SVGID_11_" x="91.1" y="60" width="50.9" height="50.9"/>
		</defs>
		<defs>
			<rect id="SVGID_12_" x="91.1" y="60" width="50.9" height="50.9"/>
		</defs>
		<defs>
			<rect id="SVGID_13_" x="91.1" y="60" width="50.9" height="50.9"/>
		</defs>
		<defs>
			<rect id="SVGID_14_" x="91.1" y="60" width="50.9" height="50.9"/>
		</defs>
		<defs>
			<rect id="SVGID_15_" x="91.1" y="60" width="50.9" height="50.9"/>
		</defs>
		<defs>
			<rect id="SVGID_16_" x="91.1" y="60" width="50.9" height="50.9"/>
		</defs>
		<defs>
			<rect id="SVGID_17_" x="91.1" y="60" width="50.9" height="50.9"/>
		</defs>
		<defs>
			<rect id="SVGID_18_" x="91.1" y="60" width="50.9" height="50.9"/>
		</defs>
		<defs>
			<rect id="SVGID_19_" x="91.1" y="60" width="50.9" height="50.9"/>
		</defs>
		<defs>
			<rect id="SVGID_20_" x="91.1" y="60" width="50.9" height="50.9"/>
		</defs>
		<defs>
			<rect id="SVGID_21_" x="91.1" y="60" width="50.9" height="50.9"/>
		</defs>
		<defs>
			<rect id="SVGID_22_" x="91.1" y="60" width="50.9" height="50.9"/>
		</defs>
		<defs>
			<rect id="SVGID_23_" x="91.1" y="60" width="50.9" height="50.9"/>
		</defs>
		<defs>
			<rect id="SVGID_24_" x="91.1" y="60" width="50.9" height="50.9"/>
		</defs>
		<clipPath id="SVGID_25_">
			<use xlink:href="#SVGID_5_"  style="overflow:visible;"/>
		</clipPath>
		<clipPath id="SVGID_26_" class="st4">
			<use xlink:href="#SVGID_6_"  style="overflow:visible;"/>
		</clipPath>
		<clipPath id="SVGID_27_" class="st5">
			<use xlink:href="#SVGID_7_"  style="overflow:visible;"/>
		</clipPath>
		<clipPath id="SVGID_28_" class="st6">
			<use xlink:href="#SVGID_8_"  style="overflow:visible;"/>
		</clipPath>
		<clipPath id="SVGID_29_" class="st7">
			<use xlink:href="#SVGID_9_"  style="overflow:visible;"/>
		</clipPath>
		<clipPath id="SVGID_30_" class="st8">
			<use xlink:href="#SVGID_10_"  style="overflow:visible;"/>
		</clipPath>
		<clipPath id="SVGID_31_" class="st9">
			<use xlink:href="#SVGID_11_"  style="overflow:visible;"/>
		</clipPath>
		<clipPath id="SVGID_32_" class="st10">
			<use xlink:href="#SVGID_12_"  style="overflow:visible;"/>
		</clipPath>
		<clipPath id="SVGID_33_" class="st11">
			<use xlink:href="#SVGID_13_"  style="overflow:visible;"/>
		</clipPath>
		<clipPath id="SVGID_34_" class="st12">
			<use xlink:href="#SVGID_14_"  style="overflow:visible;"/>
		</clipPath>
		<clipPath id="SVGID_35_" class="st13">
			<use xlink:href="#SVGID_15_"  style="overflow:visible;"/>
		</clipPath>
		<clipPath id="SVGID_36_" class="st14">
			<use xlink:href="#SVGID_16_"  style="overflow:visible;"/>
		</clipPath>
		<clipPath id="SVGID_37_" class="st15">
			<use xlink:href="#SVGID_17_"  style="overflow:visible;"/>
		</clipPath>
		<clipPath id="SVGID_38_" class="st16">
			<use xlink:href="#SVGID_18_"  style="overflow:visible;"/>
		</clipPath>
		<clipPath id="SVGID_39_" class="st17">
			<use xlink:href="#SVGID_19_"  style="overflow:visible;"/>
		</clipPath>
		<clipPath id="SVGID_40_" class="st18">
			<use xlink:href="#SVGID_20_"  style="overflow:visible;"/>
		</clipPath>
		<clipPath id="SVGID_41_" class="st19">
			<use xlink:href="#SVGID_21_"  style="overflow:visible;"/>
		</clipPath>
		<clipPath id="SVGID_42_" class="st20">
			<use xlink:href="#SVGID_22_"  style="overflow:visible;"/>
		</clipPath>
		<clipPath id="SVGID_43_" class="st21">
			<use xlink:href="#SVGID_23_"  style="overflow:visible;"/>
		</clipPath>
		<clipPath id="SVGID_44_" class="st22">
			<use xlink:href="#SVGID_24_"  style="overflow:visible;"/>
		</clipPath>
		<polygon class="st23" points="170.7,82.6 171.7,83.7 143.4,112 142.3,111 		"/>
		<g class="st24">
			<defs>
				<rect id="SVGID_45_" x="91.1" y="60" width="50.9" height="50.9"/>
			</defs>
			<clipPath id="SVGID_46_">
				<use xlink:href="#SVGID_45_"  style="overflow:visible;"/>
			</clipPath>
			<g class="st25">
				<g>
					<g>
						
							<rect x="75.3" y="83" transform="matrix(0.7067 -0.7075 0.7075 0.7067 -25.4897 106.0885)" class="st1" width="79.9" height="1.5"/>
						
							<rect x="77.5" y="77.5" transform="matrix(0.7056 -0.7086 0.7086 0.7056 -23.1984 100.629)" class="st1" width="64" height="1.5"/>
						
							<rect x="79" y="72.5" transform="matrix(0.7053 -0.7089 0.7089 0.7053 -21.5233 94.7624)" class="st1" width="48.4" height="1.5"/>
						<polygon class="st1" points="110.5,55.8 109.4,54.7 86.3,77.9 87.3,79 						"/>
						
							<rect x="76.1" y="80.1" transform="matrix(0.7064 -0.7078 0.7078 0.7064 -24.2101 103.3844)" class="st1" width="72.9" height="1.5"/>
						
							<rect x="78.1" y="74.9" transform="matrix(0.7068 -0.7074 0.7074 0.7068 -22.2752 97.5087)" class="st1" width="56.9" height="1.5"/>
						<polygon class="st1" points="115.8,56.2 114.7,55.1 85.6,84.3 86.6,85.3 						"/>
						<polygon class="st1" points="104.7,55.9 103.6,54.9 85.1,73.4 86.2,74.5 						"/>
					</g>
				</g>
				<g>
					<g>
						<g>
							<g>
								<defs>
									<rect id="SVGID_47_" x="91.1" y="60" width="50.9" height="50.9"/>
								</defs>
								<defs>
									<rect id="SVGID_48_" x="91.1" y="60" width="50.9" height="50.9"/>
								</defs>
								<defs>
									<rect id="SVGID_49_" x="91.1" y="60" width="50.9" height="50.9"/>
								</defs>
								<defs>
									<rect id="SVGID_50_" x="91.1" y="60" width="50.9" height="50.9"/>
								</defs>
								<defs>
									<rect id="SVGID_51_" x="91.1" y="60" width="50.9" height="50.9"/>
								</defs>
								<defs>
									<rect id="SVGID_52_" x="91.1" y="60" width="50.9" height="50.9"/>
								</defs>
								<defs>
									<rect id="SVGID_53_" x="91.1" y="60" width="50.9" height="50.9"/>
								</defs>
								<defs>
									<rect id="SVGID_54_" x="91.1" y="60" width="50.9" height="50.9"/>
								</defs>
								<defs>
									<rect id="SVGID_55_" x="91.1" y="60" width="50.9" height="50.9"/>
								</defs>
								<defs>
									<rect id="SVGID_56_" x="91.1" y="60" width="50.9" height="50.9"/>
								</defs>
								<defs>
									<rect id="SVGID_57_" x="91.1" y="60" width="50.9" height="50.9"/>
								</defs>
								<defs>
									<rect id="SVGID_58_" x="91.1" y="60" width="50.9" height="50.9"/>
								</defs>
								<defs>
									<rect id="SVGID_59_" x="91.1" y="60" width="50.9" height="50.9"/>
								</defs>
								<defs>
									<rect id="SVGID_60_" x="91.1" y="60" width="50.9" height="50.9"/>
								</defs>
								<defs>
									<rect id="SVGID_61_" x="91.1" y="60" width="50.9" height="50.9"/>
								</defs>
								<defs>
									<rect id="SVGID_62_" x="91.1" y="60" width="50.9" height="50.9"/>
								</defs>
								<defs>
									<rect id="SVGID_63_" x="91.1" y="60" width="50.9" height="50.9"/>
								</defs>
								<defs>
									<rect id="SVGID_64_" x="91.1" y="60" width="50.9" height="50.9"/>
								</defs>
								<defs>
									<rect id="SVGID_65_" x="91.1" y="60" width="50.9" height="50.9"/>
								</defs>
								<defs>
									<rect id="SVGID_66_" x="91.1" y="60" width="50.9" height="50.9"/>
								</defs>
								<clipPath id="SVGID_67_">
									<use xlink:href="#SVGID_47_"  style="overflow:visible;"/>
								</clipPath>
								<clipPath id="SVGID_68_" class="st26">
									<use xlink:href="#SVGID_48_"  style="overflow:visible;"/>
								</clipPath>
								<clipPath id="SVGID_69_" class="st27">
									<use xlink:href="#SVGID_49_"  style="overflow:visible;"/>
								</clipPath>
								<clipPath id="SVGID_70_" class="st28">
									<use xlink:href="#SVGID_50_"  style="overflow:visible;"/>
								</clipPath>
								<clipPath id="SVGID_71_" class="st29">
									<use xlink:href="#SVGID_51_"  style="overflow:visible;"/>
								</clipPath>
								<clipPath id="SVGID_72_" class="st30">
									<use xlink:href="#SVGID_52_"  style="overflow:visible;"/>
								</clipPath>
								<clipPath id="SVGID_73_" class="st31">
									<use xlink:href="#SVGID_53_"  style="overflow:visible;"/>
								</clipPath>
								<clipPath id="SVGID_74_" class="st32">
									<use xlink:href="#SVGID_54_"  style="overflow:visible;"/>
								</clipPath>
								<clipPath id="SVGID_75_" class="st33">
									<use xlink:href="#SVGID_55_"  style="overflow:visible;"/>
								</clipPath>
								<clipPath id="SVGID_76_" class="st34">
									<use xlink:href="#SVGID_56_"  style="overflow:visible;"/>
								</clipPath>
								<clipPath id="SVGID_77_" class="st35">
									<use xlink:href="#SVGID_57_"  style="overflow:visible;"/>
								</clipPath>
								<clipPath id="SVGID_78_" class="st36">
									<use xlink:href="#SVGID_58_"  style="overflow:visible;"/>
								</clipPath>
								<clipPath id="SVGID_79_" class="st37">
									<use xlink:href="#SVGID_59_"  style="overflow:visible;"/>
								</clipPath>
								<clipPath id="SVGID_80_" class="st38">
									<use xlink:href="#SVGID_60_"  style="overflow:visible;"/>
								</clipPath>
								<clipPath id="SVGID_81_" class="st39">
									<use xlink:href="#SVGID_61_"  style="overflow:visible;"/>
								</clipPath>
								<clipPath id="SVGID_82_" class="st40">
									<use xlink:href="#SVGID_62_"  style="overflow:visible;"/>
								</clipPath>
								<clipPath id="SVGID_83_" class="st41">
									<use xlink:href="#SVGID_63_"  style="overflow:visible;"/>
								</clipPath>
								<clipPath id="SVGID_84_" class="st42">
									<use xlink:href="#SVGID_64_"  style="overflow:visible;"/>
								</clipPath>
								<clipPath id="SVGID_85_" class="st43">
									<use xlink:href="#SVGID_65_"  style="overflow:visible;"/>
								</clipPath>
								<clipPath id="SVGID_86_" class="st44">
									<use xlink:href="#SVGID_66_"  style="overflow:visible;"/>
								</clipPath>
								<g class="st45">
									<g>
										<g>
											<polygon class="st1" points="130.5,114.7 145.7,99.4 144.7,98.4 129.3,113.8 											"/>
											
												<rect x="107.8" y="93.5" transform="matrix(0.7089 -0.7053 0.7053 0.7089 -26.0924 125.1882)" class="st1" width="61.6" height="1.5"/>
											
												<rect x="97.2" y="94.5" transform="matrix(0.7061 -0.7081 0.7081 0.7061 -30.3485 117.4194)" class="st1" width="58.1" height="1.5"/>
											
												<rect x="80.9" y="88.7" transform="matrix(0.7071 -0.7072 0.7072 0.7071 -27.8277 111.6547)" class="st1" width="80" height="1.5"/>
											<g>
												
													<rect x="83.3" y="121.4" transform="matrix(0.7075 -0.7067 0.7067 0.7075 -60.8083 97.2984)" class="st1" width="7.7" height="1.5"/>
											</g>
											<polygon class="st1" points="145.9,93.6 122.9,116.6 121.8,115.6 144.7,92.7 											"/>
											
												<rect x="104.2" y="97.3" transform="matrix(0.7071 -0.7072 0.7072 0.7071 -31.4693 120.0299)" class="st1" width="50" height="1.5"/>
											
												<rect x="89.5" y="89.1" transform="matrix(0.7082 -0.706 0.706 0.7082 -26.6339 115.2378)" class="st1" width="73.1" height="1.5"/>
											
												<rect x="78.1" y="85.8" transform="matrix(0.7074 -0.7068 0.7068 0.7074 -26.6653 108.7728)" class="st1" width="80" height="1.5"/>
											<g>
												
													<rect x="80.5" y="118.6" transform="matrix(0.7075 -0.7067 0.7067 0.7075 -59.6456 94.4986)" class="st1" width="7.7" height="1.5"/>
											</g>
										</g>
									</g>
								</g>
								<g class="st45">
									<path class="st1" d="M142,113.1H91.1c-1.2,0-2.2-1-2.2-2.2V60c0-1.2,1-2.2,2.2-2.2H142c1.2,0,2.2,1,2.2,2.2v50.9
										C144.2,112.1,143.2,113.1,142,113.1z M93.3,108.7h46.5V62.2H93.3V108.7z"/>
								</g>
							</g>
						</g>
					</g>
				</g>
			</g>
		</g>
	</g>
</g>
</svg>
