<?xml version="1.0" encoding="utf-8"?>
<!-- Generator: Adobe Illustrator 16.0.0, SVG Export Plug-In . SVG Version: 6.00 Build 0)  -->
<!DOCTYPE svg PUBLIC "-//W3C//DTD SVG 1.1//EN" "http://www.w3.org/Graphics/SVG/1.1/DTD/svg11.dtd">
<svg version="1.1" id="Layer_1" xmlns="http://www.w3.org/2000/svg" xmlns:xlink="http://www.w3.org/1999/xlink" x="0px" y="0px"
	 width="170px" height="170px" viewBox="0 0 170 170" enable-background="new 0 0 170 170" xml:space="preserve">
<path fill="#FFB23F" d="M169.5,85c0,46.67-37.839,84.5-84.5,84.5S0.5,131.67,0.5,85S38.339,0.5,85,0.5S169.5,38.33,169.5,85z"/>
<g>
	<g>
		<path fill-rule="evenodd" clip-rule="evenodd" fill="#FFFFFF" stroke="#FFFFFF" stroke-width="3" d="M85.297,50.306
			c6.244-7.353,21.636-3.558,20.768,7.822c11.743-1.092,15.318,15.44,7.281,21.038c3.318,13.236-4.222,23.117-20.227,19.958
			c-3.497,4.725-9.203,9.896-17.802,8.9c-4.468-0.52-7.714-2.969-10.248-5.936c-7.983,6.498-21.76,0.682-19.689-10.787
			c-19.155,3.488-22.716-25.784-5.124-28.049c-8.331-10.09,4.139-24.637,15.372-17.801c1.434,0.871,2.341,2.168,3.508,3.777
			c2.877-4.557,7.778-8.684,15.102-7.821C79.69,42.048,83.627,45.772,85.297,50.306z"/>
	</g>
	
		<circle fill-rule="evenodd" clip-rule="evenodd" fill="#FFFFFF" stroke="#FFFFFF" stroke-width="3" cx="113.916" cy="110.554" r="7.333"/>
	
		<circle fill-rule="evenodd" clip-rule="evenodd" fill="#FFFFFF" stroke="#FFFFFF" stroke-width="3" cx="131.416" cy="120.139" r="3.83"/>
</g>
</svg>
