<svg
   xmlns="http://www.w3.org/2000/svg"
   width="24"
   height="24"
   viewbox="0 0 24 24">
   <path
      d="M 18.5625,11.0625 A 0.47,0.47 0 0 1 18.09375,10.59375 V 9.1875 c 0,-0.77875 -0.6275,-1.40625 -1.40625,-1.40625 h -2.62 l 0.60375,0.605 a 0.4525,0.4525 0 0 1 0.14125,0.3325 0.47,0.47 0 0 1 -0.80125,0.3325 L 12.605,7.645 A 0.4675,0.4675 0 0 1 12.46875,7.3125 C 12.46875,7.18125 12.52,7.06375 12.605,6.98 L 14.01125,5.57375 A 0.47110989,0.47110989 0 0 1 14.6775,6.24 l -0.61,0.60375 h 2.62 c 1.29375,0 2.34375,1.05 2.34375,2.34375 v 1.40625 A 0.47,0.47 0 0 1 18.5625,11.0625 Z m -13.125,3.125 c 0.2575,0 0.46875,0.21125 0.46875,0.46875 v 1.40625 c 0,0.77875 0.6275,1.40625 1.40625,1.40625 h 2.62 l -0.60375,-0.605 A 0.4525,0.4525 0 0 1 9.1875,16.53125 0.47,0.47 0 0 1 9.98875,16.19875 L 11.395,17.605 A 0.4675,0.4675 0 0 1 11.53125,17.9375 0.4675,0.4675 0 0 1 11.395,18.27 L 9.98875,19.67625 A 0.47066816,0.47066816 0 0 1 9.32375,19.01 L 9.9325,18.40625 h -2.62 A 2.345,2.345 0 0 1 4.96875,16.0625 v -1.40625 c 0,-0.2575 0.21125,-0.46875 0.46875,-0.46875 z M 2,2 h 7.5 v 8.75 H 2 Z M 14.5,13.25 H 22 V 22 h -7.5 z" />
</svg>