<?xml version="1.0" encoding="utf-8"?>
<!-- Generator: Adobe Illustrator 16.0.0, SVG Export Plug-In . SVG Version: 6.00 Build 0)  -->
<!DOCTYPE svg PUBLIC "-//W3C//DTD SVG 1.1//EN" "http://www.w3.org/Graphics/SVG/1.1/DTD/svg11.dtd">
<svg version="1.1" id="Layer_1" xmlns="http://www.w3.org/2000/svg" xmlns:xlink="http://www.w3.org/1999/xlink" x="0px" y="0px"
	 width="170px" height="170px" viewBox="0 0 170 170" enable-background="new 0 0 170 170" xml:space="preserve">
<path fill="#FFB23F" d="M169.5,85c0,46.67-37.839,84.5-84.5,84.5S0.5,131.67,0.5,85S38.339,0.5,85,0.5S169.5,38.33,169.5,85z"/>
<g>
	<circle fill="#FFFFFF" cx="39.667" cy="76.493" r="5"/>
	<circle fill="#FFFFFF" cx="40.668" cy="100" r="5"/>
	<circle fill="#FFFFFF" cx="51.668" cy="80.333" r="5"/>
	<circle fill="#FFFFFF" cx="61.335" cy="95" r="5"/>
	<circle fill="#FFFFFF" cx="56.668" cy="114.667" r="5"/>
	<circle fill="#FFFFFF" cx="40.002" cy="113" r="5"/>
	<circle fill="#FFFFFF" cx="76.335" cy="74.667" r="5"/>
	<circle fill="#FFFFFF" cx="54.002" cy="53.333" r="5"/>
	<circle fill="#FFFFFF" cx="82.668" cy="107" r="5"/>
	<circle fill="#FFFFFF" cx="74.002" cy="87.333" r="5"/>
	<circle fill="#FFFFFF" cx="65.335" cy="78" r="5"/>
	<circle fill="#FFFFFF" cx="30.002" cy="89.333" r="5"/>
	<circle fill="#FFFFFF" cx="55.335" cy="67.333" r="5"/>
	<circle fill="#FFFFFF" cx="76.335" cy="59.667" r="5"/>
	<circle fill="#FFFFFF" cx="121.332" cy="80.33" r="5"/>
	<circle fill="#FFFFFF" cx="135.998" cy="83.997" r="5"/>
	<circle fill="#FFFFFF" cx="127.332" cy="97.997" r="5"/>
</g>
</svg>
