<?xml version="1.0" encoding="utf-8"?>
<!-- Generator: Adobe Illustrator 16.0.0, SVG Export Plug-In . SVG Version: 6.00 Build 0)  -->
<!DOCTYPE svg PUBLIC "-//W3C//DTD SVG 1.1//EN" "http://www.w3.org/Graphics/SVG/1.1/DTD/svg11.dtd">
<svg version="1.1" id="Layer_1" xmlns="http://www.w3.org/2000/svg" xmlns:xlink="http://www.w3.org/1999/xlink" x="0px" y="0px"
	 width="170px" height="170px" viewBox="0 0 170 170" enable-background="new 0 0 170 170" xml:space="preserve">
<path fill="#FFB23F" d="M169.65,85c0,46.67-37.839,84.5-84.5,84.5c-46.661,0-84.5-37.83-84.5-84.5S38.49,0.5,85.15,0.5
	C131.812,0.5,169.65,38.33,169.65,85z"/>
<g>
	<line fill="none" stroke="#FFFFFF" stroke-width="4" x1="124.155" y1="61.081" x2="140.267" y2="61.081"/>
	<line fill="none" stroke="#FFFFFF" stroke-width="4" x1="30.375" y1="57.286" x2="46.487" y2="57.286"/>
	<line fill="none" stroke="#FFFFFF" stroke-width="4" x1="30.375" y1="114.387" x2="46.487" y2="114.387"/>
	<line fill="none" stroke="#FFFFFF" stroke-width="4" x1="124.155" y1="127.757" x2="140.267" y2="127.757"/>
	<path fill="none" stroke="#FFFFFF" stroke-width="3" d="M109.272,115.971c0,2.994-2.427,5.421-5.421,5.421H66.229
		c-2.995,0-5.421-2.427-5.421-5.421V51.123c0-2.994,2.427-5.421,5.421-5.421h37.622c2.994,0,5.421,2.427,5.421,5.421V115.971z"/>
	<path fill="none" stroke="#FFFFFF" d="M104.013,103.163c0,2.994-2.427,5.421-5.421,5.421H71.487c-2.994,0-5.421-2.427-5.421-5.421
		V56.905c0-2.994,2.427-5.421,5.421-5.421h27.104c2.994,0,5.421,2.427,5.421,5.421V103.163z"/>
	<circle fill="none" stroke="#FFFFFF" cx="85.04" cy="114.459" r="2.531"/>
	<g>
		<polyline fill="none" stroke="#FAAF3B" stroke-width="4" points="96.547,114.856 109.041,127.351 118.697,127.351 		"/>
		<polyline fill="none" stroke="#FFFFFF" points="96.547,114.856 109.041,127.351 118.697,127.351 		"/>
	</g>
	<g>
		<polyline fill="none" stroke="#FAAF3B" stroke-width="4" points="83.24,87.28 109.118,61.401 119.635,61.401 		"/>
		<polyline fill="none" stroke="#FFFFFF" points="83.24,87.28 109.118,61.401 119.635,61.401 		"/>
	</g>
	<g>
		<polyline fill="none" stroke="#FAAF3B" stroke-width="4" points="74.136,74.975 56.789,57.627 49.748,57.627 		"/>
		<polyline fill="none" stroke="#FFFFFF" points="74.136,74.975 56.789,57.627 49.748,57.627 		"/>
	</g>
	<g>
		<polyline fill="none" stroke="#FAAF3B" stroke-width="4" points="64.558,104.794 54.621,114.729 49.75,114.729 		"/>
		<polyline fill="none" stroke="#FFFFFF" points="64.558,104.794 54.621,114.729 49.75,114.729 		"/>
	</g>
	<g>
		<circle fill="#FFFFFF" cx="74.136" cy="74.975" r="1.626"/>
		<circle fill="none" stroke="#FFFFFF" cx="74.136" cy="74.975" r="1.626"/>
	</g>
	<g>
		<circle fill="#FFFFFF" cx="65.59" cy="104.067" r="1.626"/>
		<circle fill="none" stroke="#FFFFFF" cx="65.59" cy="104.067" r="1.626"/>
	</g>
	<g>
		<circle fill="#FFFFFF" cx="83.348" cy="87.442" r="1.626"/>
		<circle fill="none" stroke="#FFFFFF" cx="83.348" cy="87.442" r="1.626"/>
	</g>
	<g>
		<circle fill="#FFFFFF" cx="96.546" cy="114.856" r="1.626"/>
		<circle fill="none" stroke="#FFFFFF" cx="96.546" cy="114.856" r="1.626"/>
	</g>
</g>
</svg>
