<?xml version="1.0" encoding="utf-8"?>
<!-- Generator: Adobe Illustrator 16.0.0, SVG Export Plug-In . SVG Version: 6.00 Build 0)  -->
<!DOCTYPE svg PUBLIC "-//W3C//DTD SVG 1.1//EN" "http://www.w3.org/Graphics/SVG/1.1/DTD/svg11.dtd">
<svg version="1.1" id="Layer_1" xmlns="http://www.w3.org/2000/svg" xmlns:xlink="http://www.w3.org/1999/xlink" x="0px" y="0px"
	 width="170px" height="170px" viewBox="0 0 170 170" enable-background="new 0 0 170 170" xml:space="preserve">
<path fill="#FFB23F" d="M169.5,85c0,46.67-37.839,84.5-84.5,84.5c-46.661,0-84.5-37.83-84.5-84.5S38.339,0.5,85,0.5
	C131.661,0.5,169.5,38.33,169.5,85z"/>
<g>
	<path fill-rule="evenodd" clip-rule="evenodd" fill="none" stroke="#FFFFFF" stroke-width="4" stroke-dasharray="9.1" d="
		M33.287,120.65c-0.59-20.279,3.697-56.813,24.071-67.137C79.8,42.142,80.643,68.604,81.473,86.063
		c0.813,17.166-5.364,30.342,13.213,34.94c12.406,3.071,14.592,2.601,21.31-10.062c5.982-11.278,2.988-27.437,4.355-40.417"/>
	<line fill="none" stroke="#FFFFFF" stroke-width="5" stroke-linecap="round" x1="106.09" y1="76.219" x2="134.61" y2="47.698"/>
	<line fill="none" stroke="#FFFFFF" stroke-width="5" stroke-linecap="round" x1="134.68" y1="75.485" x2="107.193" y2="47.469"/>
</g>
</svg>
