<?xml version="1.0" encoding="utf-8"?>
<!-- Generator: Adobe Illustrator 16.0.0, SVG Export Plug-In . SVG Version: 6.00 Build 0)  -->
<!DOCTYPE svg PUBLIC "-//W3C//DTD SVG 1.1//EN" "http://www.w3.org/Graphics/SVG/1.1/DTD/svg11.dtd">
<svg version="1.1" id="Layer_1" xmlns="http://www.w3.org/2000/svg" xmlns:xlink="http://www.w3.org/1999/xlink" x="0px" y="0px"
	 width="170px" height="170px" viewBox="0 0 170 170" enable-background="new 0 0 170 170" xml:space="preserve">
<path fill="#FFB23F" d="M169.5,85c0,46.67-37.839,84.5-84.5,84.5c-46.661,0-84.5-37.83-84.5-84.5S38.339,0.5,85,0.5
	C131.661,0.5,169.5,38.33,169.5,85z"/>
<g>
	<path fill-rule="evenodd" clip-rule="evenodd" fill="#FFFFFF" d="M120.521,68.524c-0.929-0.365-0.16-3.586-0.405-4.582
		c-12.428,0.026-25.502-0.115-37.016,0.193c22.499,6.258,36.634,20.234,37.016,46.906c2.381,0.569,6.198-0.188,8.578,0.386
		c-0.096,1.648-1.846,2.566-2.931,3.475c-6.688,5.615-13.611,11.259-20.704,17.182c-1.055,0.879-2.948,2.469-3.765,2.507
		c-1.606,0.081-6.424-4.284-7.529-5.209c-5.915-4.959-12.919-9.535-18.832-14.479c-1.039-0.869-2.866-1.681-2.927-3.28
		c1.823-0.892,6.904-0.139,9.42-0.389c0.142-3.386-0.752-6.521-2.092-8.686c-6.009-9.707-27.329-5.581-42.033-6.371
		c-0.35-14.154-0.348-29.66,0-43.816c27.118-0.451,55.142-0.067,82.608-0.195c0.48-0.519,0.072-3.334,0.207-4.175
		c-0.008-0.331,0.156-0.499,0.419-0.58c1.336,1.107,3.582,3.438,5.143,5.158c0.721,0.797,2.287,2.246,3.185,3.086
		c0.602,0.558,2.035,1.866,2.093,2.315c0.174,1.393-3.901,5.109-4.787,6.015c-0.902,0.923-1.938,1.818-2.718,2.61
		C122.731,67.322,121.873,68.559,120.521,68.524z"/>
</g>
</svg>
