<?xml version="1.0" encoding="utf-8"?>
<!-- Generator: Adobe Illustrator 16.0.0, SVG Export Plug-In . SVG Version: 6.00 Build 0)  -->
<!DOCTYPE svg PUBLIC "-//W3C//DTD SVG 1.1//EN" "http://www.w3.org/Graphics/SVG/1.1/DTD/svg11.dtd">
<svg version="1.1" id="Layer_1" xmlns="http://www.w3.org/2000/svg" xmlns:xlink="http://www.w3.org/1999/xlink" x="0px" y="0px"
	 width="170px" height="170px" viewBox="0 0 170 170" enable-background="new 0 0 170 170" xml:space="preserve">
<path fill="#FFB23F" d="M169.5,85c0,46.67-37.839,84.5-84.5,84.5c-46.661,0-84.5-37.83-84.5-84.5S38.339,0.5,85,0.5
	C131.661,0.5,169.5,38.33,169.5,85z"/>
<g>
	<path fill="#FAAF3B" stroke="#FFFFFF" stroke-width="3" d="M40.998,78.333c0-2.762-2.238-5-5-5H22.665c-2.762,0-5,2.238-5,5v13.333
		c0,2.762,2.238,5,5,5h13.333c2.762,0,5-2.238,5-5V78.333z"/>
	<path fill="#FAAF3B" stroke="#FFFFFF" stroke-width="3" d="M153.998,78.333c0-2.762-2.238-5-5-5h-13.333c-2.762,0-5,2.238-5,5
		v13.333c0,2.762,2.238,5,5,5h13.333c2.762,0,5-2.238,5-5V78.333z"/>
	<path fill="#FFFFFF" stroke="#FFFFFF" stroke-width="3" d="M69.331,78.333c0-2.762-2.238-5-5-5H50.998c-2.762,0-5,2.238-5,5v13.333
		c0,2.762,2.238,5,5,5h13.333c2.762,0,5-2.238,5-5V78.333z"/>
	<path fill="#FFFFFF" stroke="#FFFFFF" stroke-width="3" d="M97.998,78.333c0-2.762-2.238-5-5-5H79.665c-2.762,0-5,2.238-5,5v13.333
		c0,2.762,2.238,5,5,5h13.333c2.762,0,5-2.238,5-5V78.333z"/>
	<g>
		<path fill="#FAAF3B" stroke="#FFFFFF" stroke-width="3" d="M126.332,78.333c0-2.762-2.238-5-5-5h-13.333c-2.762,0-5,2.238-5,5
			v13.333c0,2.762,2.238,5,5,5h13.333c2.762,0,5-2.238,5-5V78.333z"/>
		<path fill="none" stroke="#FFFFFF" d="M103.63,80.466c2.142-2.142,4.283-4.283,6.425-6.425"/>
		<path fill="none" stroke="#FFFFFF" d="M103.832,83.72c3.27-3.271,6.54-6.54,9.811-9.811"/>
		<path fill="none" stroke="#FFFFFF" d="M104.016,86.99c4.345-4.345,8.688-8.689,13.033-13.034"/>
		<path fill="none" stroke="#FFFFFF" d="M103.856,90.605c5.569-5.57,11.14-11.14,16.709-16.709"/>
		<path fill="none" stroke="#FFFFFF" d="M103.612,94.303c6.797-6.797,13.595-13.594,20.392-20.391"/>
		<path fill="none" stroke="#FFFFFF" d="M104.854,96.516c7.01-7.01,14.02-14.019,21.029-21.029"/>
		<path fill="none" stroke="#FFFFFF" d="M108.03,96.795c5.957-5.957,11.915-11.916,17.872-17.873"/>
		<path fill="none" stroke="#FFFFFF" d="M111.727,96.555c4.719-4.719,9.438-9.438,14.156-14.157"/>
		<path fill="none" stroke="#FFFFFF" d="M114.941,96.793c3.598-3.598,7.194-7.195,10.792-10.793"/>
		<path fill="none" stroke="#FFFFFF" d="M118.569,96.621c2.431-2.432,4.861-4.861,7.292-7.293"/>
	</g>
</g>
</svg>
