<?xml version="1.0" encoding="utf-8"?>
<!-- Generator: Adobe Illustrator 16.0.0, SVG Export Plug-In . SVG Version: 6.00 Build 0)  -->
<!DOCTYPE svg PUBLIC "-//W3C//DTD SVG 1.1//EN" "http://www.w3.org/Graphics/SVG/1.1/DTD/svg11.dtd">
<svg version="1.1" id="Layer_1" xmlns="http://www.w3.org/2000/svg" xmlns:xlink="http://www.w3.org/1999/xlink" x="0px" y="0px"
	 width="170px" height="170px" viewBox="0 0 170 170" enable-background="new 0 0 170 170" xml:space="preserve">
<path fill="#FBB03B" d="M169.5,85c0,46.67-37.839,84.5-84.5,84.5S0.5,131.67,0.5,85S38.339,0.5,85,0.5S169.5,38.33,169.5,85z"/>
<path fill="#FFFFFF" d="M86.752,56.363H31.478c-1.104,0-2,0.896-2,2v55.273c0,1.104,0.896,2,2,2h55.274c1.104,0,2-0.896,2-2V58.363
	C88.752,57.258,87.856,56.363,86.752,56.363z"/>
<path fill="#FFFFFF" d="M138.025,56.363h-37.853c-1.104,0-2,0.896-2,2v37.852c0,1.104,0.896,2,2,2h37.853c1.104,0,2-0.896,2-2
	V58.363C140.025,57.258,139.13,56.363,138.025,56.363z"/>
</svg>
