<?xml version="1.0" encoding="utf-8"?>
<!-- Generator: Adobe Illustrator 16.0.0, SVG Export Plug-In . SVG Version: 6.00 Build 0)  -->
<!DOCTYPE svg PUBLIC "-//W3C//DTD SVG 1.1//EN" "http://www.w3.org/Graphics/SVG/1.1/DTD/svg11.dtd">
<svg version="1.1" id="Layer_1" xmlns="http://www.w3.org/2000/svg" xmlns:xlink="http://www.w3.org/1999/xlink" x="0px" y="0px"
	 width="170px" height="170px" viewBox="0 0 170 170" enable-background="new 0 0 170 170" xml:space="preserve">
<path fill="#FFB23F" d="M169.5,85c0,46.67-37.839,84.5-84.5,84.5c-46.661,0-84.5-37.83-84.5-84.5S38.339,0.5,85,0.5
	C131.661,0.5,169.5,38.33,169.5,85z"/>
<g>
	<path fill="#FFFFFF" d="M138.129,96.612c0,1.218-1.33,2.205-2.971,2.205H34.842c-1.641,0-2.97-0.987-2.97-2.205v-3.923
		c0-1.218,1.33-2.206,2.97-2.206h100.316c1.641,0,2.971,0.988,2.971,2.206V96.612z"/>
	<path fill="#FFFFFF" d="M138.129,115.274c0,1.218-1.33,2.205-2.971,2.205H34.842c-1.641,0-2.97-0.987-2.97-2.205v-3.923
		c0-1.218,1.33-2.206,2.97-2.206h100.316c1.641,0,2.971,0.988,2.971,2.206V115.274z"/>
	<path fill="#FFFFFF" d="M138.129,76.902c0,1.218-1.33,2.206-2.971,2.206H34.842c-1.641,0-2.97-0.988-2.97-2.206v-3.923
		c0-1.218,1.33-2.206,2.97-2.206h100.316c1.641,0,2.971,0.988,2.971,2.206V76.902z"/>
	<path fill="#FFFFFF" d="M138.129,57.195c0,1.218-1.33,2.206-2.971,2.206H34.842c-1.641,0-2.97-0.988-2.97-2.206v-3.923
		c0-1.218,1.33-2.206,2.97-2.206h100.316c1.641,0,2.971,0.988,2.971,2.206V57.195z"/>
	<g>
		<g>
			<g>
				<path fill="#FFFFFF" stroke="#FAAF3B" stroke-width="2" d="M121.868,116.504l-19.438-19.438
					c2.297-3.632,3.626-7.933,3.628-12.551c-0.002-12.984-10.525-23.507-23.512-23.512C69.558,61.007,59.034,71.53,59.034,84.514
					c0,12.989,10.524,23.511,23.512,23.516c4.814,0,9.291-1.45,13.016-3.932l19.354,19.354c0.961,0.961,2.217,1.439,3.476,1.439
					c1.256,0,2.517-0.479,3.476-1.439C123.787,121.533,123.787,118.422,121.868,116.504z M71.371,95.689
					c-2.865-2.871-4.624-6.798-4.627-11.175c0.004-4.374,1.763-8.3,4.627-11.174c2.871-2.863,6.799-4.625,11.175-4.627
					c4.375,0.002,8.302,1.764,11.174,4.627c2.866,2.874,4.627,6.801,4.629,11.174c-0.002,4.377-1.763,8.304-4.629,11.175
					c-2.872,2.866-6.799,4.627-11.174,4.631C78.17,100.316,74.242,98.556,71.371,95.689z"/>
			</g>
			<circle fill="#FAAF3B" cx="82.58" cy="84.793" r="15.318"/>
		</g>
		<g>
			<path fill="#FFFFFF" d="M71.141,74.129c0,2.284-0.858,3.545-2.336,3.545c-1.312,0-2.211-1.23-2.232-3.452
				c0-2.264,0.981-3.494,2.346-3.494C70.324,70.729,71.141,71.989,71.141,74.129z M67.492,74.232c0,1.747,0.538,2.739,1.364,2.739
				c0.919,0,1.364-1.085,1.364-2.801c0-1.653-0.413-2.739-1.364-2.739C68.071,71.431,67.492,72.403,67.492,74.232z"/>
			<path fill="#FFFFFF" d="M73.941,71.69H73.92l-1.168,0.63l-0.175-0.692l1.468-0.785h0.775v6.718h-0.878V71.69z"/>
			<path fill="#FFFFFF" d="M81.744,74.129c0,2.284-0.858,3.545-2.335,3.545c-1.313,0-2.212-1.23-2.233-3.452
				c0-2.264,0.982-3.494,2.347-3.494C80.927,70.729,81.744,71.989,81.744,74.129z M78.095,74.232c0,1.747,0.538,2.739,1.364,2.739
				c0.92,0,1.364-1.085,1.364-2.801c0-1.653-0.413-2.739-1.364-2.739C78.674,71.431,78.095,72.403,78.095,74.232z"/>
			<path fill="#FFFFFF" d="M84.544,71.69h-0.021l-1.168,0.63l-0.175-0.692l1.467-0.785h0.775v6.718h-0.879V71.69z"/>
			<path fill="#FFFFFF" d="M92.347,74.129c0,2.284-0.857,3.545-2.335,3.545c-1.313,0-2.212-1.23-2.232-3.452
				c0-2.264,0.982-3.494,2.346-3.494C91.53,70.729,92.347,71.989,92.347,74.129z M88.698,74.232c0,1.747,0.538,2.739,1.365,2.739
				c0.92,0,1.364-1.085,1.364-2.801c0-1.653-0.413-2.739-1.364-2.739C89.277,71.431,88.698,72.403,88.698,74.232z"/>
			<path fill="#FFFFFF" d="M97.648,74.129c0,2.284-0.857,3.545-2.335,3.545c-1.313,0-2.212-1.23-2.232-3.452
				c0-2.264,0.981-3.494,2.346-3.494C96.832,70.729,97.648,71.989,97.648,74.129z M94,74.232c0,1.747,0.538,2.739,1.365,2.739
				c0.919,0,1.364-1.085,1.364-2.801c0-1.653-0.414-2.739-1.364-2.739C94.579,71.431,94,72.403,94,74.232z"/>
			<path fill="#FFFFFF" d="M71.141,84.464c0,2.284-0.858,3.545-2.336,3.545c-1.312,0-2.211-1.229-2.232-3.452
				c0-2.264,0.981-3.494,2.346-3.494C70.324,81.063,71.141,82.324,71.141,84.464z M67.492,84.567c0,1.746,0.538,2.739,1.364,2.739
				c0.919,0,1.364-1.086,1.364-2.801c0-1.654-0.413-2.739-1.364-2.739C68.071,81.766,67.492,82.738,67.492,84.567z"/>
			<path fill="#FFFFFF" d="M73.941,82.025H73.92l-1.168,0.63l-0.175-0.692l1.468-0.786h0.775v6.718h-0.878V82.025z"/>
			<path fill="#FFFFFF" d="M79.243,82.025h-0.021l-1.168,0.63l-0.175-0.692l1.467-0.786h0.775v6.718h-0.878V82.025z"/>
			<path fill="#FFFFFF" d="M87.046,84.464c0,2.284-0.858,3.545-2.336,3.545c-1.312,0-2.211-1.229-2.232-3.452
				c0-2.264,0.982-3.494,2.346-3.494C86.229,81.063,87.046,82.324,87.046,84.464z M83.397,84.567c0,1.746,0.538,2.739,1.364,2.739
				c0.919,0,1.364-1.086,1.364-2.801c0-1.654-0.413-2.739-1.364-2.739C83.976,81.766,83.397,82.738,83.397,84.567z"/>
			<path fill="#FFFFFF" d="M89.846,82.025h-0.021l-1.168,0.63l-0.175-0.692l1.468-0.786h0.775v6.718h-0.88V82.025z"/>
			<path fill="#FFFFFF" d="M97.648,84.464c0,2.284-0.857,3.545-2.335,3.545c-1.313,0-2.212-1.229-2.232-3.452
				c0-2.264,0.981-3.494,2.346-3.494C96.832,81.063,97.648,82.324,97.648,84.464z M94,84.567c0,1.746,0.538,2.739,1.365,2.739
				c0.919,0,1.364-1.086,1.364-2.801c0-1.654-0.414-2.739-1.364-2.739C94.579,81.766,94,82.738,94,84.567z"/>
			<path fill="#FFFFFF" d="M70.83,92.359H70.81l-1.168,0.631l-0.175-0.692l1.467-0.785h0.775v6.718H70.83V92.359z"/>
			<path fill="#FFFFFF" d="M78.633,94.799c0,2.284-0.858,3.545-2.335,3.545c-1.313,0-2.212-1.229-2.233-3.452
				c0-2.263,0.982-3.493,2.346-3.493C77.816,91.398,78.633,92.659,78.633,94.799z M74.984,94.902c0,1.746,0.538,2.739,1.364,2.739
				c0.92,0,1.364-1.086,1.364-2.801c0-1.654-0.413-2.739-1.364-2.739C75.563,92.102,74.984,93.072,74.984,94.902z"/>
			<path fill="#FFFFFF" d="M83.935,94.799c0,2.284-0.858,3.545-2.336,3.545c-1.312,0-2.211-1.229-2.233-3.452
				c0-2.263,0.982-3.493,2.347-3.493C83.118,91.398,83.935,92.659,83.935,94.799z M80.287,94.902c0,1.746,0.538,2.739,1.364,2.739
				c0.919,0,1.364-1.086,1.364-2.801c0-1.654-0.413-2.739-1.364-2.739C80.865,92.102,80.287,93.072,80.287,94.902z"/>
			<path fill="#FFFFFF" d="M86.735,92.359h-0.021l-1.167,0.631l-0.175-0.692l1.468-0.785h0.775v6.718h-0.879V92.359z"/>
			<path fill="#FFFFFF" d="M92.036,92.359h-0.021l-1.168,0.631l-0.176-0.692l1.469-0.785h0.774v6.718h-0.879V92.359z"/>
			<path fill="#FFFFFF" d="M97.338,92.359h-0.021l-1.168,0.631l-0.176-0.692l1.468-0.785h0.775v6.718h-0.879V92.359z"/>
		</g>
	</g>
</g>
</svg>
