<?xml version="1.0" encoding="utf-8"?>
<!-- Generator: Adobe Illustrator 16.0.0, SVG Export Plug-In . SVG Version: 6.00 Build 0)  -->
<!DOCTYPE svg PUBLIC "-//W3C//DTD SVG 1.1//EN" "http://www.w3.org/Graphics/SVG/1.1/DTD/svg11.dtd">
<svg version="1.1" id="Layer_1" xmlns="http://www.w3.org/2000/svg" xmlns:xlink="http://www.w3.org/1999/xlink" x="0px" y="0px"
	 width="170px" height="170px" viewBox="0 0 170 170" enable-background="new 0 0 170 170" xml:space="preserve">
<path fill="#FFB23F" d="M169.5,85c0,46.67-37.839,84.5-84.5,84.5c-46.661,0-84.5-37.83-84.5-84.5S38.339,0.5,85,0.5
	C131.661,0.5,169.5,38.33,169.5,85z"/>
<g>
	<circle fill="#FFFFFF" cx="51.998" cy="85.497" r="26"/>
	<circle fill="none" stroke="#FFFFFF" stroke-width="5" cx="118.002" cy="85.497" r="23.5"/>
	<path fill="none" stroke="#FFFFFF" stroke-width="3" stroke-linecap="round" d="M54.202,50.927c0,0,9.858-10.633,27.523-10.428
		c17.667,0.205,26.56,8.971,26.56,8.971"/>
	<polyline fill="none" stroke="#FFFFFF" stroke-width="3" stroke-linecap="round" points="98.764,51.194 109.768,50.988 
		108.719,40.809 	"/>
	<path fill="none" stroke="#FFFFFF" stroke-width="3" stroke-linecap="round" d="M115.883,119.072c0,0-11.861,10.633-29.525,10.43
		c-17.667-0.205-26.561-8.973-26.561-8.973"/>
	<polyline fill="none" stroke="#FFFFFF" stroke-width="3" stroke-linecap="round" points="69.318,118.807 58.314,119.012 
		59.363,129.191 	"/>
</g>
</svg>
